<svg width="24" height="24" viewBox="0 0 24 24" fill="none" xmlns="http://www.w3.org/2000/svg">
<path d="M20.5713 11.1321H12.857V3.41781C12.857 2.94442 12.4732 2.56067 11.9999 2.56067C11.5265 2.56067 11.1427 2.94442 11.1427 3.41781V11.1321H3.42843C2.95505 11.1321 2.57129 11.5159 2.57129 11.9892C2.57129 12.4626 2.95505 12.8464 3.42843 12.8464H11.1427V20.5607C11.1427 21.0341 11.5265 21.4178 11.9999 21.4178C12.4732 21.4178 12.857 21.0341 12.857 20.5607V12.8464H20.5713C21.0447 12.8464 21.4284 12.4626 21.4284 11.9892C21.4284 11.5159 21.0447 11.1321 20.5713 11.1321Z" fill="#1758BA"/>
</svg>
