<svg width="448" height="341" viewBox="0 0 448 341" fill="none" xmlns="http://www.w3.org/2000/svg">
<path d="M51 140.808C51 102.715 51 83.6681 62.8057 71.8341C74.6114 60 93.6123 60 131.614 60H320.386C358.388 60 377.389 60 389.194 71.8341C401 83.6681 401 102.715 401 140.808V179.192C401 217.285 401 236.332 389.194 248.166C377.389 260 358.388 260 320.386 260H131.614C93.6123 260 74.6114 260 62.8057 248.166C51 236.332 51 217.285 51 179.192V140.808Z" fill="#FAFAFA"/>
<path opacity="0.25" fill-rule="evenodd" clip-rule="evenodd" d="M137.5 44.6713C74.0819 44.6713 22.6713 96.0819 22.6713 159.5C22.6713 222.918 74.0819 274.329 137.5 274.329C200.918 274.329 252.329 222.918 252.329 159.5C252.329 96.0819 200.918 44.6713 137.5 44.6713ZM22 159.5C22 95.7111 73.7111 44 137.5 44C201.289 44 253 95.7111 253 159.5C253 223.289 201.289 275 137.5 275C73.7111 275 22 223.289 22 159.5Z" fill="#979797"/>
<path opacity="0.5" fill-rule="evenodd" clip-rule="evenodd" d="M137 55.6719C79.9335 55.6719 33.6719 101.933 33.6719 159C33.6719 216.067 79.9335 262.328 137 262.328C194.067 262.328 240.328 216.067 240.328 159C240.328 101.933 194.067 55.6719 137 55.6719ZM33 159C33 101.562 79.5624 55 137 55C194.438 55 241 101.562 241 159C241 216.438 194.438 263 137 263C79.5624 263 33 216.438 33 159Z" fill="#979797"/>
<path opacity="0.75" fill-rule="evenodd" clip-rule="evenodd" d="M137 67.673C86.5615 67.673 45.673 108.562 45.673 159C45.673 209.438 86.5615 250.327 137 250.327C187.438 250.327 228.327 209.438 228.327 159C228.327 108.562 187.438 67.673 137 67.673ZM45 159C45 108.19 86.1898 67 137 67C187.81 67 229 108.19 229 159C229 209.81 187.81 251 137 251C86.1898 251 45 209.81 45 159Z" fill="#979797"/>
<g filter="url(#filter0_d_10749_58404)">
<path fill-rule="evenodd" clip-rule="evenodd" d="M93.3219 27.1162L26.378 65.7662L26.4429 65.8786C37.1466 84.2781 60.7263 90.5646 79.1749 79.9133C97.661 69.2404 103.995 45.6023 93.3219 27.1163C93.3219 27.1162 93.3219 27.1162 93.3219 27.1162Z" fill="url(#paint0_radial_10749_58404)"/>
</g>
<g filter="url(#filter1_d_10749_58404)">
<path d="M76 212C76 220.837 68.8366 228 60 228C51.1634 228 44 220.837 44 212C44 203.163 51.1634 196 60 196C68.8366 196 76 203.163 76 212Z" fill="url(#paint1_radial_10749_58404)"/>
</g>
<g filter="url(#filter2_d_10749_58404)">
<path d="M255 63C255 70.732 248.732 77 241 77C233.268 77 227 70.732 227 63C227 55.268 233.268 49 241 49C248.732 49 255 55.268 255 63Z" fill="url(#paint2_radial_10749_58404)"/>
</g>
<g filter="url(#filter3_d_10749_58404)">
<path d="M391 253C391 262.941 382.941 271 373 271C363.059 271 355 262.941 355 253C355 243.059 363.059 235 373 235C382.941 235 391 243.059 391 253Z" fill="url(#paint3_radial_10749_58404)"/>
</g>
<path fill-rule="evenodd" clip-rule="evenodd" d="M271.62 61.7068C271.214 62.1008 270.563 62.0973 270.161 61.6989L266.915 58.4819L263.669 61.6989C263.474 61.8917 263.211 62 262.935 62C262.66 62 262.396 61.8917 262.202 61.6989L258.956 58.4819L255.71 61.6989C255.515 61.8917 255.251 62 254.976 62C254.701 62 254.437 61.8917 254.243 61.6989L250.997 58.4819L247.75 61.6989C247.556 61.8917 247.292 62 247.017 62C246.742 62 246.478 61.8917 246.283 61.6989L242.304 57.755C241.899 57.3535 241.899 56.7026 242.304 56.3011C242.709 55.8996 243.366 55.8996 243.771 56.3011L247.017 59.5181L250.263 56.3011C250.458 56.1083 250.721 56 250.997 56C251.272 56 251.536 56.1083 251.73 56.3011L254.976 59.5181L258.222 56.3011C258.417 56.1083 258.681 56 258.956 56C259.231 56 259.495 56.1083 259.689 56.3011L262.935 59.5181L266.182 56.3011C266.376 56.1083 266.64 56 266.915 56C267.19 56 267.454 56.1083 267.649 56.3011L270.903 59.5261L274.237 56.2932C274.647 55.8961 275.304 55.9033 275.704 56.3091C276.105 56.715 276.098 57.3659 275.688 57.7629L271.62 61.7068Z" fill="black"/>
<path fill-rule="evenodd" clip-rule="evenodd" d="M24.2512 54.2932C24.6456 53.8992 25.277 53.9027 25.6671 54.3011L28.8178 57.5181L31.9684 54.3011C32.1572 54.1083 32.4133 54 32.6804 54C32.9474 54 33.2035 54.1083 33.3923 54.3011L36.5429 57.5181L39.6936 54.3011C39.8824 54.1083 40.1385 54 40.4055 54C40.6725 54 40.9286 54.1083 41.1174 54.3011L44.2681 57.5181L47.4187 54.3011C47.6075 54.1083 47.8636 54 48.1306 54C48.3976 54 48.6537 54.1083 48.8425 54.3011L52.7051 58.245C53.0983 58.6465 53.0983 59.2974 52.7051 59.6989C52.3119 60.1004 51.6744 60.1004 51.2813 59.6989L48.1306 56.4819L44.98 59.6989C44.7912 59.8917 44.5351 60 44.2681 60C44.001 60 43.7449 59.8917 43.5561 59.6989L40.4055 56.4819L37.2548 59.6989C37.066 59.8917 36.8099 60 36.5429 60C36.2759 60 36.0198 59.8917 35.831 59.6989L32.6804 56.4819L29.5297 59.6989C29.3409 59.8917 29.0848 60 28.8178 60C28.5508 60 28.2947 59.8917 28.1059 59.6989L24.9474 56.4739L21.7109 59.7068C21.3134 60.1039 20.676 60.0967 20.2871 59.6909C19.8983 59.285 19.9053 58.6341 20.3028 58.2371L24.2512 54.2932Z" fill="black"/>
<path fill-rule="evenodd" clip-rule="evenodd" d="M401.099 238.556L401.096 238.562L401.082 238.589C401.069 238.613 401.049 238.651 401.022 238.7C400.969 238.799 400.889 238.942 400.788 239.115C400.583 239.463 400.294 239.921 399.953 240.373C399.608 240.831 399.234 241.251 398.864 241.547C398.48 241.854 398.208 241.944 398.045 241.944C397.95 241.944 397.844 241.92 397.661 241.696C397.449 241.438 397.261 241.064 397.007 240.542C396.998 240.524 396.989 240.506 396.98 240.488C396.759 240.032 396.475 239.45 396.101 238.989C395.683 238.474 395.064 238 394.182 238C393.301 238 392.681 238.473 392.262 238.986C391.884 239.449 391.598 240.034 391.374 240.491C391.366 240.508 391.358 240.524 391.35 240.54C391.095 241.062 390.905 241.438 390.693 241.698C390.508 241.924 390.405 241.944 390.32 241.944C390.235 241.944 390.131 241.924 389.946 241.698C389.734 241.438 389.545 241.062 389.289 240.54C389.281 240.524 389.273 240.508 389.265 240.491C389.041 240.034 388.755 239.449 388.377 238.986C387.958 238.473 387.338 238 386.457 238C385.576 238 384.956 238.473 384.537 238.986C384.159 239.449 383.873 240.034 383.649 240.491C383.641 240.508 383.633 240.524 383.625 240.54C383.37 241.062 383.18 241.438 382.968 241.698C382.783 241.924 382.68 241.944 382.595 241.944C382.51 241.944 382.406 241.924 382.221 241.698C382.009 241.438 381.819 241.062 381.564 240.54C381.556 240.524 381.548 240.508 381.54 240.491C381.316 240.034 381.03 239.449 380.652 238.986C380.233 238.473 379.613 238 378.732 238C377.851 238 377.231 238.473 376.812 238.986C376.434 239.449 376.148 240.034 375.924 240.491C375.916 240.508 375.908 240.524 375.9 240.54C375.645 241.062 375.455 241.438 375.243 241.698C375.058 241.924 374.955 241.944 374.87 241.944C374.717 241.944 374.454 241.859 374.08 241.553C373.72 241.259 373.356 240.841 373.02 240.383C372.688 239.931 372.407 239.474 372.209 239.126C372.11 238.954 372.033 238.811 371.981 238.712C371.955 238.663 371.936 238.625 371.924 238.601L371.91 238.574L371.908 238.568C371.659 238.061 371.054 237.855 370.557 238.109C370.059 238.363 369.858 238.98 370.107 239.488L371.007 239.028C370.107 239.488 370.106 239.488 370.107 239.488L370.108 239.49L370.109 239.494L370.115 239.505L370.135 239.544C370.151 239.578 370.176 239.624 370.206 239.683C370.268 239.8 370.357 239.965 370.469 240.162C370.693 240.554 371.016 241.083 371.409 241.617C371.797 242.145 372.277 242.713 372.822 243.159C373.353 243.592 374.056 244 374.87 244C375.75 244 376.371 243.527 376.79 243.014C377.167 242.551 377.454 241.966 377.677 241.509C377.685 241.492 377.693 241.476 377.701 241.46C377.957 240.938 378.147 240.562 378.359 240.303C378.543 240.076 378.647 240.056 378.732 240.056C378.817 240.056 378.921 240.076 379.105 240.303C379.317 240.562 379.507 240.938 379.763 241.46C379.771 241.476 379.779 241.492 379.787 241.509C380.01 241.966 380.297 242.551 380.674 243.014C381.093 243.527 381.714 244 382.595 244C383.475 244 384.096 243.527 384.515 243.014C384.892 242.551 385.179 241.966 385.402 241.509C385.41 241.492 385.418 241.476 385.426 241.46C385.682 240.938 385.872 240.562 386.084 240.303C386.268 240.076 386.372 240.056 386.457 240.056C386.542 240.056 386.646 240.076 386.83 240.303C387.042 240.562 387.232 240.938 387.488 241.46C387.496 241.476 387.504 241.492 387.512 241.509C387.736 241.966 388.022 242.551 388.399 243.014C388.818 243.527 389.439 244 390.32 244C391.2 244 391.821 243.527 392.24 243.014C392.617 242.551 392.904 241.966 393.127 241.509C393.135 241.492 393.143 241.476 393.151 241.46C393.407 240.938 393.597 240.562 393.809 240.303C393.993 240.076 394.097 240.056 394.182 240.056C394.266 240.056 394.368 240.076 394.551 240.3C394.761 240.56 394.949 240.935 395.204 241.458C395.211 241.472 395.218 241.487 395.225 241.501C395.448 241.96 395.735 242.549 396.116 243.015C396.539 243.531 397.162 244 398.045 244C398.858 244 399.567 243.597 400.107 243.165C400.661 242.721 401.152 242.155 401.549 241.627C401.951 241.094 402.283 240.565 402.514 240.174C402.63 239.977 402.721 239.812 402.785 239.695C402.816 239.636 402.841 239.589 402.858 239.556L402.879 239.517L402.885 239.506L402.886 239.502L402.887 239.501C402.887 239.501 402.887 239.5 401.993 239.028L402.887 239.5C403.143 238.996 402.949 238.375 402.455 238.115C401.961 237.854 401.354 238.052 401.099 238.556Z" fill="white"/>
<path fill-rule="evenodd" clip-rule="evenodd" d="M66.2512 221.293C66.6456 220.899 67.277 220.903 67.6671 221.301L70.8178 224.518L73.9684 221.301C74.1572 221.108 74.4133 221 74.6804 221C74.9474 221 75.2035 221.108 75.3923 221.301L78.5429 224.518L81.6936 221.301C81.8824 221.108 82.1385 221 82.4055 221C82.6725 221 82.9286 221.108 83.1174 221.301L86.2681 224.518L89.4187 221.301C89.6075 221.108 89.8636 221 90.1306 221C90.3976 221 90.6537 221.108 90.8425 221.301L94.7051 225.245C95.0983 225.647 95.0983 226.297 94.7051 226.699C94.3119 227.1 93.6744 227.1 93.2813 226.699L90.1306 223.482L86.98 226.699C86.7912 226.892 86.5351 227 86.2681 227C86.001 227 85.7449 226.892 85.5561 226.699L82.4055 223.482L79.2548 226.699C79.066 226.892 78.8099 227 78.5429 227C78.2759 227 78.0198 226.892 77.831 226.699L74.6804 223.482L71.5297 226.699C71.3409 226.892 71.0848 227 70.8178 227C70.5508 227 70.2947 226.892 70.1059 226.699L66.9474 223.474L63.7109 226.707C63.3134 227.104 62.676 227.097 62.2871 226.691C61.8983 226.285 61.9053 225.634 62.3028 225.237L66.2512 221.293Z" fill="black"/>
<defs>
<filter id="filter0_d_10749_58404" x="0.37793" y="0.116211" width="112.129" height="97.9819" filterUnits="userSpaceOnUse" color-interpolation-filters="sRGB">
<feFlood flood-opacity="0" result="BackgroundImageFix"/>
<feColorMatrix in="SourceAlpha" type="matrix" values="0 0 0 0 0 0 0 0 0 0 0 0 0 0 0 0 0 0 127 0" result="hardAlpha"/>
<feOffset dx="-6" dy="-7"/>
<feGaussianBlur stdDeviation="10"/>
<feColorMatrix type="matrix" values="0 0 0 0 0.494118 0 0 0 0 0.345098 0 0 0 0 0.913725 0 0 0 0.41073 0"/>
<feBlend mode="normal" in2="BackgroundImageFix" result="effect1_dropShadow_10749_58404"/>
<feBlend mode="normal" in="SourceGraphic" in2="effect1_dropShadow_10749_58404" result="shape"/>
</filter>
<filter id="filter1_d_10749_58404" x="17" y="182" width="116" height="116" filterUnits="userSpaceOnUse" color-interpolation-filters="sRGB">
<feFlood flood-opacity="0" result="BackgroundImageFix"/>
<feColorMatrix in="SourceAlpha" type="matrix" values="0 0 0 0 0 0 0 0 0 0 0 0 0 0 0 0 0 0 127 0" result="hardAlpha"/>
<feOffset dx="15" dy="28"/>
<feGaussianBlur stdDeviation="21"/>
<feColorMatrix type="matrix" values="0 0 0 0 1 0 0 0 0 0.517647 0 0 0 0 0.0901961 0 0 0 0.648957 0"/>
<feBlend mode="normal" in2="BackgroundImageFix" result="effect1_dropShadow_10749_58404"/>
<feBlend mode="normal" in="SourceGraphic" in2="effect1_dropShadow_10749_58404" result="shape"/>
</filter>
<filter id="filter2_d_10749_58404" x="200" y="35" width="112" height="112" filterUnits="userSpaceOnUse" color-interpolation-filters="sRGB">
<feFlood flood-opacity="0" result="BackgroundImageFix"/>
<feColorMatrix in="SourceAlpha" type="matrix" values="0 0 0 0 0 0 0 0 0 0 0 0 0 0 0 0 0 0 127 0" result="hardAlpha"/>
<feOffset dx="15" dy="28"/>
<feGaussianBlur stdDeviation="21"/>
<feColorMatrix type="matrix" values="0 0 0 0 1 0 0 0 0 0.0901961 0 0 0 0 0.0901961 0 0 0 0.648957 0"/>
<feBlend mode="normal" in2="BackgroundImageFix" result="effect1_dropShadow_10749_58404"/>
<feBlend mode="normal" in="SourceGraphic" in2="effect1_dropShadow_10749_58404" result="shape"/>
</filter>
<filter id="filter3_d_10749_58404" x="328" y="221" width="120" height="120" filterUnits="userSpaceOnUse" color-interpolation-filters="sRGB">
<feFlood flood-opacity="0" result="BackgroundImageFix"/>
<feColorMatrix in="SourceAlpha" type="matrix" values="0 0 0 0 0 0 0 0 0 0 0 0 0 0 0 0 0 0 127 0" result="hardAlpha"/>
<feOffset dx="15" dy="28"/>
<feGaussianBlur stdDeviation="21"/>
<feColorMatrix type="matrix" values="0 0 0 0 0.63248 0 0 0 0 0.0901961 0 0 0 0 1 0 0 0 0.648957 0"/>
<feBlend mode="normal" in2="BackgroundImageFix" result="effect1_dropShadow_10749_58404"/>
<feBlend mode="normal" in="SourceGraphic" in2="effect1_dropShadow_10749_58404" result="shape"/>
</filter>
<radialGradient id="paint0_radial_10749_58404" cx="0" cy="0" r="1" gradientUnits="userSpaceOnUse" gradientTransform="translate(84.7824 34.6199) rotate(131.584) scale(43.8 28.4572)">
<stop stop-color="#8468D1"/>
<stop offset="1" stop-color="#1758BA"/>
</radialGradient>
<radialGradient id="paint1_radial_10749_58404" cx="0" cy="0" r="1" gradientUnits="userSpaceOnUse" gradientTransform="translate(64.8647 203.181) rotate(122.865) scale(29.5486 28.878)">
<stop stop-color="#FEDA75"/>
<stop offset="1" stop-color="#FF6F00"/>
</radialGradient>
<radialGradient id="paint2_radial_10749_58404" cx="0" cy="0" r="1" gradientUnits="userSpaceOnUse" gradientTransform="translate(245.257 55.2831) rotate(122.865) scale(25.855 25.2683)">
<stop stop-color="#FE75E6"/>
<stop offset="1" stop-color="#FF0052"/>
</radialGradient>
<radialGradient id="paint3_radial_10749_58404" cx="0" cy="0" r="1" gradientUnits="userSpaceOnUse" gradientTransform="translate(378.473 243.078) rotate(122.865) scale(33.2422 32.4878)">
<stop stop-color="#9900FF"/>
<stop offset="1" stop-color="#1758BA"/>
</radialGradient>
</defs>
</svg>
