<svg width="482" height="330" viewBox="0 0 482 330" fill="none" xmlns="http://www.w3.org/2000/svg">
<path fill-rule="evenodd" clip-rule="evenodd" d="M153.725 49.2872C153.102 46.7924 150.574 45.2757 148.079 45.8994C145.584 46.5232 144.067 49.0513 144.691 51.546L151.221 77.6643L157.298 103.019C159.882 113.8 161.916 122.287 164.329 128.879C166.805 135.642 169.841 140.891 174.712 144.917C175.132 145.265 175.56 145.603 175.996 145.93C181.046 149.729 186.859 151.457 194.012 152.289C200.986 153.099 209.712 153.099 220.798 153.099H224.483C234.075 153.099 241.626 153.099 247.709 152.484C253.94 151.854 259.066 150.546 263.68 147.658C265.868 146.288 267.901 144.684 269.744 142.875C274.082 138.617 276.656 133.269 278.872 126.334C280.502 121.233 282.02 114.993 283.847 107.378L284.301 105.485C285.649 99.8603 286.76 95.2248 287.189 91.4695C287.635 87.5719 287.453 83.8608 285.507 80.4724C284.675 79.0231 283.635 77.7039 282.419 76.5569C279.578 73.8752 276.011 72.8335 272.117 72.3583C268.365 71.9005 263.598 71.9006 257.815 71.9007L159.379 71.9007L153.725 49.2872ZM166.285 100.561L161.648 81.2132H257.513C263.674 81.2132 267.868 81.2214 270.989 81.6022C274.033 81.9737 275.281 82.6251 276.028 83.3297C276.58 83.851 277.053 84.4507 277.431 85.1094C277.943 85.9997 278.285 87.3652 277.937 90.4119C277.62 93.1801 276.823 96.6997 275.646 101.635L229.917 101.635C227.346 101.635 225.261 103.72 225.261 106.292C225.261 108.863 227.346 110.948 229.917 110.948L273.402 110.948C272.54 114.465 271.753 117.539 270.977 120.26H248.542C245.971 120.26 243.886 122.345 243.886 124.917C243.886 127.488 245.971 129.573 248.542 129.573H267.706C266.383 132.446 264.955 134.527 263.22 136.23C261.858 137.567 260.355 138.752 258.738 139.765C255.794 141.608 252.239 142.666 246.772 143.219C241.212 143.781 234.131 143.787 224.228 143.787H221.095C209.648 143.787 201.461 143.779 195.087 143.039C188.831 142.312 184.832 140.923 181.594 138.488C181.272 138.246 180.955 137.996 180.644 137.739C177.521 135.158 175.239 131.592 173.074 125.678C170.868 119.652 168.953 111.693 166.285 100.561Z" fill="#E9E6E6"/>
<path d="M208.024 168.048C208.024 171.657 205.099 174.583 201.489 174.583C197.88 174.583 194.954 171.657 194.954 168.048C194.954 164.439 197.88 161.513 201.489 161.513C205.099 161.513 208.024 164.439 208.024 168.048Z" fill="#E9E6E6"/>
<path d="M247.235 168.048C247.235 171.657 244.309 174.583 240.7 174.583C237.091 174.583 234.165 171.657 234.165 168.048C234.165 164.439 237.091 161.513 240.7 161.513C244.309 161.513 247.235 164.439 247.235 168.048Z" fill="#E9E6E6"/>
<g filter="url(#filter0_d_11553_77801)">
<path d="M336.207 108.937C358.519 108.937 377.956 122.077 388.092 141.501C394.801 138.528 402.16 136.889 409.877 136.889C441.297 136.889 463.902 168.872 463.902 202.4C463.902 235.928 441.297 258.303 409.877 258.303C389.451 258.303 371.539 246.816 361.505 229.565C353.832 233.431 345.256 235.593 336.207 235.593C335.956 235.593 335.705 235.591 335.455 235.588C331.124 262.714 308.554 281.014 281.363 281.014C251.074 281.014 226.52 258.306 226.52 225.984C226.52 200.643 241.613 179.064 262.731 170.925C260.048 167.342 258.443 162.797 258.443 157.852C258.443 146.274 267.239 136.889 278.089 136.889C280.873 136.889 283.522 137.507 285.922 138.621C296.419 120.789 315.016 108.937 336.207 108.937Z" fill="white"/>
</g>
<g filter="url(#filter1_d_11553_77801)">
<path d="M138.225 129.238C152.349 129.238 164.964 136.128 173.275 146.928C174.22 146.747 175.196 146.651 176.193 146.651C185.212 146.651 192.523 154.447 192.523 164.064C192.523 166.311 192.124 168.458 191.398 170.429C192.974 170.25 194.576 170.159 196.197 170.159C208.684 170.159 219.991 175.544 228.187 184.255C233.728 177.233 242.031 172.771 251.312 172.771C267.997 172.771 281.523 187.194 281.523 204.985C281.523 214.388 277.745 222.85 271.719 228.739C271.723 228.946 271.725 229.155 271.725 229.363C271.725 247.155 258.199 261.578 241.514 261.578C235.267 261.578 229.464 259.556 224.647 256.093C216.871 262.791 206.973 266.802 196.197 266.802C172.883 266.802 153.68 248.027 151.161 223.883C147.24 225.126 143.097 225.819 138.81 225.877L138.413 225.879L138.341 226.611C135.772 250.699 116.594 269.413 93.3165 269.413C68.2889 269.413 48 247.779 48 221.092C48 201.219 59.2505 184.149 75.3304 176.727C74.5554 174.701 74.1284 172.483 74.1284 170.159C74.1284 160.542 81.4398 152.746 90.4587 152.746C93.2692 152.746 95.9138 153.503 98.2231 154.836C105.847 139.604 120.901 129.238 138.225 129.238Z" fill="white"/>
</g>
<defs>
<filter id="filter0_d_11553_77801" x="88.5195" y="0.937012" width="393.383" height="328.077" filterUnits="userSpaceOnUse" color-interpolation-filters="sRGB">
<feFlood flood-opacity="0" result="BackgroundImageFix"/>
<feColorMatrix in="SourceAlpha" type="matrix" values="0 0 0 0 0 0 0 0 0 0 0 0 0 0 0 0 0 0 127 0" result="hardAlpha"/>
<feOffset dx="-60" dy="-30"/>
<feGaussianBlur stdDeviation="39"/>
<feColorMatrix type="matrix" values="0 0 0 0 0.823529 0 0 0 0 0.282353 0 0 0 0 0.291373 0 0 0 0.1 0"/>
<feBlend mode="normal" in2="BackgroundImageFix" result="effect1_dropShadow_11553_77801"/>
<feBlend mode="normal" in="SourceGraphic" in2="effect1_dropShadow_11553_77801" result="shape"/>
</filter>
<filter id="filter1_d_11553_77801" x="0" y="1.23828" width="389.523" height="296.175" filterUnits="userSpaceOnUse" color-interpolation-filters="sRGB">
<feFlood flood-opacity="0" result="BackgroundImageFix"/>
<feColorMatrix in="SourceAlpha" type="matrix" values="0 0 0 0 0 0 0 0 0 0 0 0 0 0 0 0 0 0 127 0" result="hardAlpha"/>
<feOffset dx="30" dy="-50"/>
<feGaussianBlur stdDeviation="39"/>
<feColorMatrix type="matrix" values="0 0 0 0 0.823529 0 0 0 0 0.282353 0 0 0 0 0.282353 0 0 0 0.05 0"/>
<feBlend mode="normal" in2="BackgroundImageFix" result="effect1_dropShadow_11553_77801"/>
<feBlend mode="normal" in="SourceGraphic" in2="effect1_dropShadow_11553_77801" result="shape"/>
</filter>
</defs>
</svg>
