<svg width="120" height="120" viewBox="0 0 120 120" fill="none" xmlns="http://www.w3.org/2000/svg">
<g filter="url(#filter0_d_13005_17803)">
<path d="M63 32C63 41.9411 54.9411 50 45 50C35.0589 50 27 41.9411 27 32C27 22.0589 35.0589 14 45 14C54.9411 14 63 22.0589 63 32Z" fill="url(#paint0_radial_13005_17803)"/>
</g>
<path fill-rule="evenodd" clip-rule="evenodd" d="M73.0986 17.5561L73.0957 17.5619L73.0818 17.5887C73.0689 17.6133 73.0489 17.6512 73.0223 17.7004C72.969 17.7989 72.8894 17.9421 72.7877 18.115C72.583 18.4628 72.2942 18.9208 71.9533 19.3732C71.608 19.8315 71.2339 20.2509 70.8642 20.5469C70.4804 20.8542 70.2075 20.944 70.0446 20.944C69.9504 20.944 69.844 20.9197 69.6611 20.6964C69.4494 20.4379 69.2606 20.0638 69.0067 19.5425C68.9979 19.5244 68.989 19.5061 68.9801 19.4876C68.7586 19.0322 68.4752 18.4497 68.101 17.9885C67.6833 17.4739 67.0636 17.0002 66.1821 17.0002C65.3015 17.0002 64.681 17.4729 64.262 17.9863C63.8842 18.4492 63.5981 19.0341 63.3744 19.4913C63.3663 19.5079 63.3583 19.5242 63.3504 19.5404C63.0947 20.0625 62.905 20.4378 62.6928 20.6977C62.5084 20.9237 62.4046 20.944 62.3196 20.944C62.2346 20.944 62.1309 20.9237 61.9464 20.6977C61.7342 20.4378 61.5445 20.0625 61.2889 19.5404C61.2809 19.5242 61.2729 19.5078 61.2649 19.4913C61.0411 19.0341 60.755 18.4492 60.3772 17.9863C59.9582 17.4729 59.3377 17.0002 58.4571 17.0002C57.5765 17.0002 56.956 17.4729 56.537 17.9863C56.1592 18.4492 55.873 19.0341 55.6493 19.4913C55.6412 19.5078 55.6332 19.5242 55.6253 19.5404C55.3697 20.0625 55.1799 20.4378 54.9678 20.6977C54.7833 20.9237 54.6796 20.944 54.5946 20.944C54.5096 20.944 54.4058 20.9237 54.2213 20.6977C54.0092 20.4378 53.8195 20.0625 53.5638 19.5404C53.5559 19.5242 53.5479 19.5078 53.5398 19.4913C53.3161 19.0341 53.0299 18.4492 52.6522 17.9863C52.2332 17.4729 51.6127 17.0002 50.7321 17.0002C49.8514 17.0002 49.2309 17.4729 48.8119 17.9863C48.4342 18.4492 48.148 19.0341 47.9243 19.4913C47.9162 19.5079 47.9082 19.5242 47.9003 19.5404C47.6446 20.0625 47.4549 20.4378 47.2428 20.6977C47.0583 20.9237 46.9545 20.944 46.8695 20.944C46.717 20.944 46.4544 20.8587 46.0802 20.5531C45.72 20.2589 45.3558 19.8411 45.0195 19.3833C44.6876 18.9315 44.4072 18.4741 44.2086 18.1264C44.1099 17.9537 44.0329 17.8106 43.9813 17.7122C43.9555 17.6631 43.9361 17.6253 43.9237 17.6006L43.9102 17.5739L43.9075 17.5685C43.6588 17.0609 43.054 16.8549 42.5568 17.1087C42.0594 17.3626 41.8578 17.9801 42.1065 18.4879L43.007 18.0282C42.1065 18.4879 42.1064 18.4877 42.1065 18.4879L42.1076 18.4901L42.1093 18.4937L42.115 18.5052L42.1347 18.5444C42.1515 18.5775 42.1755 18.6244 42.2063 18.6831C42.2678 18.8004 42.3568 18.9654 42.4693 19.1624C42.6932 19.5542 43.0163 20.0828 43.4086 20.6169C43.7966 21.1451 44.2772 21.7133 44.8223 22.1585C45.3534 22.5923 46.0565 23 46.8695 23C47.7502 23 48.3706 22.5273 48.7897 22.0139C49.1674 21.5511 49.4536 20.9661 49.6773 20.5089C49.6854 20.4924 49.6934 20.476 49.7013 20.4598C49.957 19.9377 50.1467 19.5624 50.3588 19.3025C50.5433 19.0765 50.647 19.0562 50.7321 19.0562C50.8171 19.0562 50.9208 19.0765 51.1053 19.3025C51.3174 19.5624 51.5071 19.9377 51.7628 20.4598C51.7707 20.476 51.7787 20.4923 51.7868 20.5088C52.0105 20.9661 52.2967 21.551 52.6744 22.0139C53.0935 22.5273 53.7139 23 54.5946 23C55.4752 23 56.0957 22.5273 56.5147 22.0139C56.8925 21.551 57.1786 20.9661 57.4023 20.5089C57.4104 20.4924 57.4184 20.476 57.4263 20.4598C57.682 19.9377 57.8717 19.5624 58.0838 19.3025C58.2683 19.0765 58.3721 19.0562 58.4571 19.0562C58.5421 19.0562 58.6458 19.0765 58.8303 19.3025C59.0424 19.5624 59.2322 19.9377 59.4878 20.4598C59.4958 20.476 59.5038 20.4924 59.5118 20.5089C59.7355 20.9661 60.0217 21.551 60.3995 22.0139C60.8185 22.5273 61.439 23 62.3196 23C63.2002 23 63.8207 22.5273 64.2397 22.0139C64.6175 21.5511 64.9037 20.9661 65.1274 20.5089C65.1355 20.4924 65.1435 20.476 65.1514 20.4598C65.407 19.9377 65.5968 19.5624 65.8089 19.3025C65.9934 19.0765 66.0971 19.0562 66.1821 19.0562C66.2662 19.0562 66.3681 19.0755 66.5505 19.3003C66.7612 19.5599 66.9489 19.9345 67.2037 20.4578C67.2107 20.4722 67.2178 20.4868 67.225 20.5015C67.4482 20.9602 67.7347 21.5492 68.1164 22.0152C68.5391 22.5313 69.1624 23 70.0446 23C70.8583 23 71.5672 22.5968 72.1068 22.1647C72.6606 21.7212 73.1515 21.1547 73.5492 20.627C73.9511 20.0935 74.2833 19.5655 74.5137 19.1739C74.6295 18.977 74.7212 18.8121 74.7846 18.6949C74.8164 18.6363 74.8411 18.5894 74.8584 18.5563L74.8787 18.5172L74.8846 18.5058L74.8864 18.5022L74.887 18.5009C74.8871 18.5007 74.8875 18.5 73.993 18.0282L74.8875 18.5C75.1427 17.9956 74.9491 17.3754 74.4551 17.1149C73.9612 16.8544 73.3539 17.0519 73.0986 17.5561Z" fill="white"/>
<defs>
<filter id="filter0_d_13005_17803" x="0" y="0" width="120" height="120" filterUnits="userSpaceOnUse" color-interpolation-filters="sRGB">
<feFlood flood-opacity="0" result="BackgroundImageFix"/>
<feColorMatrix in="SourceAlpha" type="matrix" values="0 0 0 0 0 0 0 0 0 0 0 0 0 0 0 0 0 0 127 0" result="hardAlpha"/>
<feOffset dx="15" dy="28"/>
<feGaussianBlur stdDeviation="21"/>
<feColorMatrix type="matrix" values="0 0 0 0 0.63248 0 0 0 0 0.0901961 0 0 0 0 1 0 0 0 0.648957 0"/>
<feBlend mode="normal" in2="BackgroundImageFix" result="effect1_dropShadow_13005_17803"/>
<feBlend mode="normal" in="SourceGraphic" in2="effect1_dropShadow_13005_17803" result="shape"/>
</filter>
<radialGradient id="paint0_radial_13005_17803" cx="0" cy="0" r="1" gradientUnits="userSpaceOnUse" gradientTransform="translate(50.4728 22.0783) rotate(122.865) scale(33.2422 32.4878)">
<stop stop-color="#9900FF"/>
<stop offset="1" stop-color="#1758BA"/>
</radialGradient>
</defs>
</svg>
