<svg width="24" height="24" viewBox="0 0 24 24" fill="none" xmlns="http://www.w3.org/2000/svg">
<path d="M20.5703 11.132H12.856V3.41769C12.856 2.9443 12.4723 2.56055 11.9989 2.56055C11.5255 2.56055 11.1417 2.9443 11.1417 3.41769V11.132H3.42746C2.95407 11.132 2.57031 11.5157 2.57031 11.9891C2.57031 12.4625 2.95407 12.8463 3.42746 12.8463H11.1417V20.5605C11.1417 21.0339 11.5255 21.4177 11.9989 21.4177C12.4723 21.4177 12.856 21.0339 12.856 20.5605V12.8463H20.5703C21.0437 12.8463 21.4275 12.4625 21.4275 11.9891C21.4275 11.5157 21.0437 11.132 20.5703 11.132Z" fill="#1758BA"/>
</svg>
