<svg width="111" height="38" viewBox="0 0 111 38" fill="none" xmlns="http://www.w3.org/2000/svg">
<path d="M0 22.5687C0 19.255 2.68629 16.5687 6 16.5687H15.3111V31.1694H6C2.68629 31.1694 0 28.4831 0 25.1694V22.5687Z" fill="#2CDFC9"/>
<path d="M15.3115 7.0061C15.3115 3.6924 17.9978 1.0061 21.3115 1.0061H24C27.3137 1.0061 30 3.6924 30 7.0061V25.1696C30 28.4833 27.3137 31.1696 24 31.1696H15.3115V7.0061Z" fill="#1758BA"/>
<path d="M7.83984 14.8724C7.83984 11.5587 10.5261 8.87244 13.8398 8.87244H22.4151V31.1696H7.83984V14.8724Z" fill="#3C75CC" fill-opacity="0.7"/>
<path d="M45.8105 2.82568V21.5332H48.855V27.979H39.4487L39.3438 6.14307C39.5957 4.04346 40.6805 2.93766 42.5981 2.82568H45.8105ZM48.3091 21.5332H57.2744V15.9482C57.3444 15.4163 57.4634 14.9264 57.6313 14.4785C57.7993 14.0306 58.0163 13.6387 58.2822 13.3027C58.5622 12.9668 58.8841 12.7008 59.248 12.5049C59.626 12.2949 60.0529 12.1689 60.5288 12.127H63.7412V21.5332C63.8252 22.569 63.7552 23.4928 63.5312 24.3047C63.3213 25.1025 62.9993 25.7814 62.5654 26.3413C62.1455 26.9012 61.6276 27.3211 61.0117 27.6011C60.3958 27.881 59.731 28.007 59.0171 27.979H48.3091V21.5332ZM53.1172 30.0366C53.5791 30.0366 54.006 30.1206 54.3979 30.2886C54.8039 30.4705 55.1538 30.7085 55.4478 31.0024C55.7557 31.2964 55.9937 31.6463 56.1616 32.0522C56.3436 32.4582 56.4346 32.8921 56.4346 33.354C56.4346 33.8019 56.3436 34.2288 56.1616 34.6348C55.9937 35.0407 55.7557 35.3976 55.4478 35.7056C55.1538 36.0135 54.8039 36.2515 54.3979 36.4194C54.006 36.6014 53.5791 36.6924 53.1172 36.6924C52.6693 36.6924 52.2424 36.6014 51.8364 36.4194C51.4305 36.2515 51.0736 36.0135 50.7656 35.7056C50.4717 35.3976 50.2337 35.0407 50.0518 34.6348C49.8838 34.2288 49.7998 33.8019 49.7998 33.354C49.7998 32.8921 49.8838 32.4582 50.0518 32.0522C50.2337 31.6463 50.4717 31.2964 50.7656 31.0024C51.0736 30.7085 51.4305 30.4705 51.8364 30.2886C52.2424 30.1206 52.6693 30.0366 53.1172 30.0366ZM60.2139 30.0366C60.6758 30.0366 61.1097 30.1206 61.5156 30.2886C61.9215 30.4705 62.2715 30.7085 62.5654 31.0024C62.8734 31.2964 63.1113 31.6463 63.2793 32.0522C63.4613 32.4582 63.5522 32.8921 63.5522 33.354C63.5522 33.8019 63.4613 34.2288 63.2793 34.6348C63.1113 35.0407 62.8734 35.3976 62.5654 35.7056C62.2715 36.0135 61.9215 36.2515 61.5156 36.4194C61.1097 36.6014 60.6758 36.6924 60.2139 36.6924C59.766 36.6924 59.339 36.6014 58.9331 36.4194C58.5272 36.2515 58.1702 36.0135 57.8623 35.7056C57.5684 35.3976 57.3304 35.0407 57.1484 34.6348C56.9805 34.2288 56.8965 33.8019 56.8965 33.354C56.8965 32.8921 56.9805 32.4582 57.1484 32.0522C57.3304 31.6463 57.5684 31.2964 57.8623 31.0024C58.1702 30.7085 58.5272 30.4705 58.9331 30.2886C59.339 30.1206 59.766 30.0366 60.2139 30.0366ZM72.9375 2.82568V21.5332H75.9819V27.979H66.5757L66.4707 6.14307C66.7227 4.04346 67.8075 2.93766 69.7251 2.82568H72.9375ZM98.4688 21.5332V15.9482C98.5807 14.8844 98.9027 13.9956 99.4346 13.2817C99.9805 12.5679 100.736 12.1829 101.702 12.127H104.915V21.5332C104.999 22.569 104.929 23.4928 104.705 24.3047C104.495 25.1025 104.173 25.7814 103.739 26.3413C103.319 26.9012 102.801 27.3211 102.185 27.6011C101.569 27.881 100.904 28.007 100.19 27.979H75.625V21.5332H78.8794V15.9482C78.9634 14.8844 79.2783 13.9956 79.8242 13.2817C80.3841 12.5679 81.14 12.1829 82.0918 12.127H85.3252V21.5332H88.6636V15.9482C88.7756 14.8844 89.0975 13.9956 89.6294 13.2817C90.1753 12.5679 90.9312 12.1829 91.897 12.127H95.1304V21.5332H98.4688Z" fill="#1758BA"/>
</svg>
