<svg width="32" height="32" viewBox="0 0 32 32" fill="none" xmlns="http://www.w3.org/2000/svg">
<path d="M28.1066 11.4401V20.56C28.1066 22.0534 27.3066 23.4401 26.0132 24.2001L18.0932 28.7734C16.7999 29.5201 15.1999 29.5201 13.8932 28.7734L5.97322 24.2001C4.67988 23.4534 3.87988 22.0667 3.87988 20.56V11.4401C3.87988 9.94673 4.67988 8.56001 5.97322 7.80001L13.8932 3.22669C15.1866 2.48002 16.7865 2.48002 18.0932 3.22669L26.0132 7.80001C27.3066 8.56001 28.1066 9.9334 28.1066 11.4401Z" stroke="#1758BA" stroke-width="1.5" stroke-linecap="round" stroke-linejoin="round"/>
<path opacity="0.4" d="M16.0002 14.6667C17.716 14.6667 19.1069 13.2757 19.1069 11.56C19.1069 9.84421 17.716 8.45337 16.0002 8.45337C14.2845 8.45337 12.8936 9.84421 12.8936 11.56C12.8936 13.2757 14.2845 14.6667 16.0002 14.6667Z" stroke="#1758BA" stroke-width="1.5" stroke-linecap="round" stroke-linejoin="round"/>
<path opacity="0.4" d="M21.3337 22.2133C21.3337 19.8133 18.947 17.8667 16.0003 17.8667C13.0537 17.8667 10.667 19.8133 10.667 22.2133" stroke="#1758BA" stroke-width="1.5" stroke-linecap="round" stroke-linejoin="round"/>
</svg>
